<svg xmlns="http://www.w3.org/2000/svg" width="1200" height="675" viewBox="0 0 1200 675" role="img" aria-labelledby="title desc">
<title id="title">iPhone 17 Pro and iPhone 17 Pro Max discontinued after iPhone 18 Pro launch</title>
<desc id="desc">Lowest Item Review Lab news graphic showing the transition from iPhone 17 Pro models to the new iPhone 18 Pro lineup.</desc>
<defs>
  <linearGradient id="bg" x1="0" y1="0" x2="1" y2="1"><stop stop-color="#04111f"/><stop offset=".55" stop-color="#0a2442"/><stop offset="1" stop-color="#07101e"/></linearGradient>
  <linearGradient id="phone" x1="0" y1="0" x2="1" y2="1"><stop stop-color="#d6dde8"/><stop offset=".45" stop-color="#6f7b8d"/><stop offset="1" stop-color="#1c2634"/></linearGradient>
  <linearGradient id="newphone" x1="0" y1="0" x2="1" y2="1"><stop stop-color="#f2c999"/><stop offset=".45" stop-color="#87654b"/><stop offset="1" stop-color="#251b17"/></linearGradient>
  <filter id="shadow"><feDropShadow dx="0" dy="18" stdDeviation="18" flood-color="#000" flood-opacity=".45"/></filter>
</defs>
<rect width="1200" height="675" fill="url(#bg)"/>
<circle cx="950" cy="90" r="260" fill="#38bdf8" opacity=".07"/><circle cx="180" cy="590" r="310" fill="#8b5cf6" opacity=".08"/>
<text x="58" y="68" fill="#7dd3fc" font-family="Arial,Helvetica,sans-serif" font-size="19" font-weight="700" letter-spacing="4">APPLE LINEUP UPDATE • SEPTEMBER 2026</text>
<text x="58" y="130" fill="#fff" font-family="Arial,Helvetica,sans-serif" font-size="51" font-weight="800">iPhone 17 Pro &amp; 17 Pro Max</text>
<text x="58" y="188" fill="#d9efff" font-family="Arial,Helvetica,sans-serif" font-size="58" font-weight="900">Discontinued</text>
<text x="61" y="227" fill="#a9bed1" font-family="Arial,Helvetica,sans-serif" font-size="23">after the iPhone 18 Pro lineup was announced</text>

<g filter="url(#shadow)">
  <rect x="72" y="282" width="224" height="325" rx="38" fill="url(#phone)" stroke="#dce9f8" stroke-opacity=".45" stroke-width="3"/>
  <rect x="95" y="304" width="134" height="98" rx="28" fill="#758195" opacity=".9"/>
  <circle cx="132" cy="338" r="25" fill="#07111e" stroke="#c4d2e2" stroke-width="7"/><circle cx="190" cy="338" r="25" fill="#07111e" stroke="#c4d2e2" stroke-width="7"/><circle cx="160" cy="378" r="25" fill="#07111e" stroke="#c4d2e2" stroke-width="7"/>
  <rect x="312" y="252" width="246" height="355" rx="42" fill="#26374f" stroke="#8195ad" stroke-width="3"/>
  <rect x="337" y="277" width="146" height="104" rx="30" fill="#304866"/>
  <circle cx="377" cy="314" r="27" fill="#050c14" stroke="#8499b2" stroke-width="7"/><circle cx="438" cy="314" r="27" fill="#050c14" stroke="#8499b2" stroke-width="7"/><circle cx="407" cy="357" r="27" fill="#050c14" stroke="#8499b2" stroke-width="7"/>
</g>
<g transform="rotate(-10 314 485)"><rect x="153" y="458" width="325" height="84" rx="12" fill="none" stroke="#ff5d69" stroke-width="8"/><text x="181" y="517" fill="#ff5d69" font-family="Arial,Helvetica,sans-serif" font-size="45" font-weight="900">DISCONTINUED</text></g>

<g filter="url(#shadow)">
  <rect x="700" y="252" width="205" height="355" rx="42" fill="url(#newphone)" stroke="#ffd7a8" stroke-opacity=".65" stroke-width="3"/>
  <rect x="723" y="277" width="135" height="101" rx="30" fill="#a57a55" opacity=".72"/>
  <circle cx="761" cy="314" r="26" fill="#090806" stroke="#dbb486" stroke-width="7"/><circle cx="817" cy="314" r="26" fill="#090806" stroke="#dbb486" stroke-width="7"/><circle cx="788" cy="355" r="26" fill="#090806" stroke="#dbb486" stroke-width="7"/>
  <rect x="918" y="282" width="205" height="325" rx="40" fill="#142337" stroke="#4e6580" stroke-width="3"/>
  <rect x="941" y="305" width="135" height="101" rx="29" fill="#1d3652"/>
  <circle cx="978" cy="340" r="25" fill="#040a11" stroke="#526b87" stroke-width="7"/><circle cx="1034" cy="340" r="25" fill="#040a11" stroke="#526b87" stroke-width="7"/><circle cx="1006" cy="380" r="25" fill="#040a11" stroke="#526b87" stroke-width="7"/>
</g>
<text x="723" y="224" fill="#67e8f9" font-family="Arial,Helvetica,sans-serif" font-size="19" font-weight="800" letter-spacing="3">NEW PRO GENERATION</text>
<text x="742" y="647" fill="#cbd8e7" font-family="Arial,Helvetica,sans-serif" font-size="20">iPhone 18 Pro • A20 Pro • 48MP variable-aperture main camera</text>
<rect x="58" y="244" width="556" height="2" fill="#4baee8" opacity=".3"/>
<text x="58" y="642" fill="#fff" font-family="Arial,Helvetica,sans-serif" font-size="28" font-weight="800">lowestitem.com</text>
<text x="235" y="642" fill="#7dd3fc" font-family="Arial,Helvetica,sans-serif" font-size="16" letter-spacing="2">NEWS • REVIEWS • SMART UPGRADE INTELLIGENCE</text>
</svg>
